<svg width="7" height="5" viewBox="0 0 7 5" fill="none" xmlns="http://www.w3.org/2000/svg">
<path fill-rule="evenodd" clip-rule="evenodd" d="M6.81015 0.168318C6.74863 0.113546 6.67538 0.0704203 6.59478 0.0415203C6.51417 0.0126203 6.42788 -0.00146061 6.34104 0.000119707C6.25421 0.00170003 6.16863 0.0189092 6.08941 0.0507178C6.01019 0.0825265 5.93897 0.128281 5.88 0.185247L2.88888 3.59018L1.08629 1.97889C0.963838 1.87695 0.801883 1.82146 0.634542 1.8241C0.4672 1.82673 0.307537 1.8873 0.18919 1.99304C0.0708436 2.09877 0.00305318 2.24142 0.000100635 2.39093C-0.00285191 2.54044 0.0592637 2.68514 0.173362 2.79454L2.45223 4.83134C2.51362 4.88609 2.58672 4.92923 2.66718 4.95819C2.74764 4.98715 2.8338 5.00134 2.92053 4.9999C3.00725 4.99846 3.09277 4.98144 3.17197 4.94983C3.25117 4.91823 3.32244 4.8727 3.38151 4.81595L6.81962 0.976268C6.93683 0.867386 7.00158 0.721783 6.99997 0.570722C6.99836 0.41966 6.93052 0.275185 6.81101 0.168318H6.81015Z" fill="#6C6D6F"/>
</svg>
