<svg width="25" height="25" viewBox="0 0 25 25" fill="none" xmlns="http://www.w3.org/2000/svg">
<path d="M12.4998 24.929C10.0416 24.929 7.63855 24.2001 5.59461 22.8343C3.55068 21.4686 1.95763 19.5275 1.01691 17.2564C0.0761861 14.9853 -0.169949 12.4862 0.309626 10.0753C0.789201 7.66427 1.97295 5.44964 3.71117 3.71141C5.44939 1.97319 7.66403 0.789445 10.075 0.30987C12.486 -0.169705 14.985 0.0764302 17.2561 1.01715C19.5272 1.95787 21.4684 3.55092 22.8341 5.59486C24.1998 7.63879 24.9288 10.0418 24.9288 12.5C24.9288 15.7964 23.6193 18.9578 21.2884 21.2886C18.9575 23.6195 15.7962 24.929 12.4998 24.929ZM12.4998 1.84662C10.3927 1.84662 8.33301 2.47143 6.58107 3.64204C4.82912 4.81265 3.46365 6.47649 2.65732 8.42315C1.85099 10.3698 1.64001 12.5118 2.05108 14.5784C2.46214 16.645 3.47678 18.5432 4.96669 20.0331C6.45659 21.523 8.35485 22.5377 10.4214 22.9487C12.488 23.3598 14.63 23.1488 16.5767 22.3425C18.5233 21.5362 20.1872 20.1707 21.3578 18.4187C22.5284 16.6668 23.1532 14.6071 23.1532 12.5C23.1532 9.67457 22.0308 6.96483 20.0329 4.96693C18.035 2.96903 15.3252 1.84662 12.4998 1.84662Z" fill="black"/>
<path fill-rule="evenodd" clip-rule="evenodd" d="M12.4998 1.84662C10.3927 1.84662 8.33301 2.47143 6.58107 3.64204C4.82912 4.81265 3.46365 6.47649 2.65732 8.42315C1.85099 10.3698 1.64001 12.5118 2.05108 14.5784C2.46214 16.645 3.47678 18.5432 4.96669 20.0331C6.45659 21.523 8.35485 22.5377 10.4214 22.9487C12.488 23.3598 14.63 23.1488 16.5767 22.3425C18.5233 21.5362 20.1872 20.1707 21.3578 18.4187C22.5284 16.6668 23.1532 14.6071 23.1532 12.5C23.1532 9.67457 22.0308 6.96483 20.0329 4.96693C18.035 2.96903 15.3252 1.84662 12.4998 1.84662ZM9.32262 10.1526C9.30815 10.1148 9.30157 10.0744 9.30328 10.0339C9.42235 7.90822 11.162 7.16875 12.75 7.16875C14.5009 7.16875 16.1002 8.08369 16.1002 9.97749C16.1002 11.3298 15.3043 11.9741 14.541 12.5544C13.6173 13.255 13.2751 13.5169 13.2751 14.4168V14.5484C13.2751 14.6315 13.2421 14.7112 13.1833 14.77C13.1246 14.8287 13.0449 14.8618 12.9618 14.8618H11.9453C11.8631 14.8618 11.7841 14.8294 11.7255 14.7718C11.6669 14.7141 11.6333 14.6357 11.632 14.5534L11.6282 14.2815C11.5806 13.1196 12.2486 12.404 13.0921 11.7911C13.8329 11.2346 14.3016 10.8686 14.3016 10.0727C14.3016 9.03873 13.5145 8.60884 12.6547 8.60884C11.6495 8.60884 11.0855 9.20793 10.9727 10.0301C10.9502 10.2018 10.8123 10.3435 10.6393 10.3435H9.60534C9.56483 10.3442 9.52461 10.3366 9.48714 10.3212C9.44967 10.3058 9.41574 10.2829 9.38745 10.2539C9.35916 10.2249 9.3371 10.1904 9.32262 10.1526ZM12.5206 18.4187C11.7874 18.4187 11.2547 17.9249 11.2547 17.2569C11.2547 16.5651 11.7874 16.0788 12.5194 16.0788C13.2826 16.0788 13.809 16.5651 13.809 17.2569C13.809 17.9249 13.2839 18.4187 12.5206 18.4187Z" fill="black"/>
</svg>
