<svg width="15" height="16" viewBox="0 0 15 16" fill="none" xmlns="http://www.w3.org/2000/svg">
<g clip-path="url(#clip0_60_695)">
<path d="M14.5329 2.31863C14.6204 2.4065 14.6696 2.5255 14.6696 2.64957C14.6696 2.77363 14.6204 2.89264 14.5329 2.98051L13.555 3.95926L11.68 2.08426L12.6579 1.10551C12.7458 1.01763 12.865 0.968262 12.9893 0.968262C13.1136 0.968262 13.2328 1.01763 13.3207 1.10551L14.5329 2.31769V2.31863ZM12.8922 4.62113L11.0172 2.74613L4.63005 9.13426C4.57845 9.18584 4.5396 9.24876 4.51661 9.31801L3.76192 11.5811C3.74823 11.6224 3.74629 11.6666 3.75631 11.7089C3.76633 11.7512 3.78791 11.7899 3.81865 11.8207C3.84938 11.8514 3.88806 11.873 3.93036 11.883C3.97266 11.893 4.01691 11.8911 4.05817 11.8774L6.3213 11.1227C6.39045 11.1 6.45336 11.0615 6.50505 11.0102L12.8922 4.62207V4.62113Z" fill="#6C6D6F"/>
<path fill-rule="evenodd" clip-rule="evenodd" d="M0.9375 13.1562C0.9375 13.5292 1.08566 13.8869 1.34938 14.1506C1.6131 14.4143 1.97079 14.5625 2.34375 14.5625H12.6562C13.0292 14.5625 13.3869 14.4143 13.6506 14.1506C13.9143 13.8869 14.0625 13.5292 14.0625 13.1562V7.53125C14.0625 7.40693 14.0131 7.2877 13.9252 7.19979C13.8373 7.11189 13.7181 7.0625 13.5938 7.0625C13.4694 7.0625 13.3502 7.11189 13.2623 7.19979C13.1744 7.2877 13.125 7.40693 13.125 7.53125V13.1562C13.125 13.2806 13.0756 13.3998 12.9877 13.4877C12.8998 13.5756 12.7806 13.625 12.6562 13.625H2.34375C2.21943 13.625 2.1002 13.5756 2.01229 13.4877C1.92439 13.3998 1.875 13.2806 1.875 13.1562V2.84375C1.875 2.71943 1.92439 2.6002 2.01229 2.51229C2.1002 2.42439 2.21943 2.375 2.34375 2.375H8.4375C8.56182 2.375 8.68105 2.32561 8.76896 2.23771C8.85686 2.1498 8.90625 2.03057 8.90625 1.90625C8.90625 1.78193 8.85686 1.6627 8.76896 1.57479C8.68105 1.48689 8.56182 1.4375 8.4375 1.4375H2.34375C1.97079 1.4375 1.6131 1.58566 1.34938 1.84938C1.08566 2.1131 0.9375 2.47079 0.9375 2.84375V13.1562Z" fill="#6C6D6F"/>
</g>
<defs>
<clipPath id="clip0_60_695">
<rect width="15" height="15" fill="white" transform="translate(0 0.5)"/>
</clipPath>
</defs>
</svg>
