<svg width="17" height="13" viewBox="0 0 17 13" fill="none" xmlns="http://www.w3.org/2000/svg">
<path fill-rule="evenodd" clip-rule="evenodd" d="M12.4294 12.9992C12.5641 12.9992 12.6932 12.9503 12.7885 12.8632C12.8837 12.7761 12.9372 12.6581 12.9372 12.5349V1.5857L16.1321 4.50754C16.2274 4.59471 16.3567 4.64368 16.4916 4.64368C16.6264 4.64368 16.7557 4.59471 16.8511 4.50754C16.9464 4.42037 17 4.30214 17 4.17887C17 4.05559 16.9464 3.93737 16.8511 3.8502L12.7889 0.136384C12.7417 0.0931522 12.6857 0.0588525 12.624 0.0354495C12.5623 0.0120465 12.4962 0 12.4294 0C12.3626 0 12.2965 0.0120465 12.2348 0.0354495C12.1731 0.0588525 12.1171 0.0931522 12.0699 0.136384L8.00773 3.8502C7.91238 3.93737 7.85881 4.05559 7.85881 4.17887C7.85881 4.30214 7.91238 4.42037 8.00773 4.50754C8.10307 4.59471 8.23239 4.64368 8.36723 4.64368C8.50207 4.64368 8.63139 4.59471 8.72673 4.50754L11.9216 1.5857V12.5349C11.9216 12.6581 11.9751 12.7761 12.0704 12.8632C12.1656 12.9503 12.2947 12.9992 12.4294 12.9992ZM5.32059 0.000829825C5.45526 0.000829825 5.58442 0.0497392 5.67964 0.136799C5.77487 0.223858 5.82837 0.341936 5.82837 0.465056V11.4143L9.02327 8.49246C9.11862 8.40529 9.24793 8.35632 9.38277 8.35632C9.51761 8.35632 9.64693 8.40529 9.74228 8.49246C9.83762 8.57963 9.89119 8.69786 9.89119 8.82113C9.89119 8.94441 9.83762 9.06264 9.74228 9.14981L5.6801 12.8636C5.63293 12.9068 5.5769 12.9411 5.51521 12.9646C5.45352 12.988 5.38738 13 5.32059 13C5.2538 13 5.18767 12.988 5.12598 12.9646C5.06429 12.9411 5.00826 12.9068 4.96109 12.8636L0.898911 9.14981C0.803565 9.06264 0.75 8.94441 0.75 8.82113C0.75 8.69786 0.803565 8.57963 0.898911 8.49246C0.994257 8.40529 1.12357 8.35632 1.25841 8.35632C1.39325 8.35632 1.52257 8.40529 1.61792 8.49246L4.81282 11.4143V0.465056C4.81282 0.341936 4.86632 0.223858 4.96154 0.136799C5.05677 0.0497392 5.18592 0.000829825 5.32059 0.000829825Z" fill="#B8BABC"/>
</svg>
