<svg width="45" height="35" viewBox="0 0 45 35" fill="none" xmlns="http://www.w3.org/2000/svg">
<g clip-path="url(#clip0_55_1042)">
<path fill-rule="evenodd" clip-rule="evenodd" d="M24.7882 19.7895C24.8752 19.7024 24.9786 19.6332 25.0925 19.5861C25.2063 19.5389 25.3283 19.5146 25.4515 19.5146C25.5747 19.5146 25.6967 19.5389 25.8105 19.5861C25.9243 19.6332 26.0277 19.7024 26.1147 19.7895L29.7241 23.3989C29.9 23.5747 29.9989 23.8132 29.999 24.0619C29.9991 24.3106 29.9004 24.5491 29.7246 24.725C29.5488 24.9009 29.3103 24.9998 29.0616 24.9999C28.8129 25 28.5744 24.9013 28.3985 24.7255L24.7891 21.1161C24.702 21.029 24.6328 20.9256 24.5856 20.8118C24.5384 20.698 24.5142 20.576 24.5142 20.4528C24.5142 20.3296 24.5384 20.2076 24.5856 20.0938C24.6328 19.98 24.702 19.8766 24.7891 19.7895H24.7882Z" fill="#7C8493"/>
<path fill-rule="evenodd" clip-rule="evenodd" d="M21.0938 21.25C21.7709 21.25 22.4414 21.1166 23.067 20.8575C23.6925 20.5984 24.261 20.2186 24.7398 19.7398C25.2186 19.261 25.5984 18.6925 25.8575 18.067C26.1166 17.4414 26.25 16.7709 26.25 16.0938C26.25 15.4166 26.1166 14.7461 25.8575 14.1205C25.5984 13.495 25.2186 12.9265 24.7398 12.4477C24.261 11.9689 23.6925 11.5891 23.067 11.33C22.4414 11.0709 21.7709 10.9375 21.0938 10.9375C19.7262 10.9375 18.4147 11.4807 17.4477 12.4477C16.4807 13.4147 15.9375 14.7262 15.9375 16.0938C15.9375 17.4613 16.4807 18.7728 17.4477 19.7398C18.4147 20.7068 19.7262 21.25 21.0938 21.25ZM27.1875 16.0938C27.1875 17.7099 26.5455 19.2599 25.4027 20.4027C24.2599 21.5455 22.7099 22.1875 21.0938 22.1875C19.4776 22.1875 17.9276 21.5455 16.7848 20.4027C15.642 19.2599 15 17.7099 15 16.0938C15 14.4776 15.642 12.9276 16.7848 11.7848C17.9276 10.642 19.4776 10 21.0938 10C22.7099 10 24.2599 10.642 25.4027 11.7848C26.5455 12.9276 27.1875 14.4776 27.1875 16.0938Z" fill="#7C8493"/>
</g>
<defs>
<clipPath id="clip0_55_1042">
<rect width="15" height="15" fill="white" transform="translate(15 10)"/>
</clipPath>
</defs>
</svg>
