<svg width="15" height="16" viewBox="0 0 15 16" fill="none" xmlns="http://www.w3.org/2000/svg">
<path fill-rule="evenodd" clip-rule="evenodd" d="M0.46875 9.78125C0.59307 9.78125 0.712299 9.83064 0.800206 9.91854C0.888114 10.0065 0.9375 10.1257 0.9375 10.25V12.5938C0.9375 12.8424 1.03627 13.0808 1.21209 13.2567C1.3879 13.4325 1.62636 13.5312 1.875 13.5312H13.125C13.3736 13.5312 13.6121 13.4325 13.7879 13.2567C13.9637 13.0808 14.0625 12.8424 14.0625 12.5938V10.25C14.0625 10.1257 14.1119 10.0065 14.1998 9.91854C14.2877 9.83064 14.4069 9.78125 14.5312 9.78125C14.6556 9.78125 14.7748 9.83064 14.8627 9.91854C14.9506 10.0065 15 10.1257 15 10.25V12.5938C15 13.091 14.8025 13.5679 14.4508 13.9196C14.0992 14.2712 13.6223 14.4688 13.125 14.4688H1.875C1.37772 14.4688 0.900806 14.2712 0.549175 13.9196C0.197544 13.5679 0 13.091 0 12.5938V10.25C0 10.1257 0.049386 10.0065 0.137294 9.91854C0.225201 9.83064 0.34443 9.78125 0.46875 9.78125Z" fill="#6C6D6F"/>
<path fill-rule="evenodd" clip-rule="evenodd" d="M7.16872 1.57411C7.21226 1.53046 7.26399 1.49583 7.32094 1.4722C7.37788 1.44857 7.43894 1.4364 7.50059 1.4364C7.56225 1.4364 7.6233 1.44857 7.68025 1.4722C7.7372 1.49583 7.78892 1.53046 7.83247 1.57411L10.645 4.38661C10.733 4.47463 10.7824 4.59401 10.7824 4.71849C10.7824 4.84297 10.733 4.96235 10.645 5.05036C10.5569 5.13838 10.4376 5.18783 10.3131 5.18783C10.1886 5.18783 10.0692 5.13838 9.98122 5.05036L7.96934 3.03755V11.281C7.96934 11.4053 7.91996 11.5245 7.83205 11.6124C7.74414 11.7004 7.62491 11.7497 7.50059 11.7497C7.37627 11.7497 7.25704 11.7004 7.16914 11.6124C7.08123 11.5245 7.03184 11.4053 7.03184 11.281V3.03755L5.01997 5.05036C4.97638 5.09395 4.92465 5.12852 4.8677 5.15211C4.81076 5.17569 4.74973 5.18783 4.68809 5.18783C4.62646 5.18783 4.56543 5.17569 4.50848 5.15211C4.45154 5.12852 4.3998 5.09395 4.35622 5.05036C4.31263 5.00678 4.27806 4.95504 4.25448 4.8981C4.23089 4.84116 4.21875 4.78012 4.21875 4.71849C4.21875 4.65685 4.23089 4.59582 4.25448 4.53888C4.27806 4.48194 4.31263 4.4302 4.35622 4.38661L7.16872 1.57411Z" fill="#6C6D6F"/>
</svg>
