<svg width="11" height="11" viewBox="0 0 11 11" fill="none" xmlns="http://www.w3.org/2000/svg">
<path fill-rule="evenodd" clip-rule="evenodd" d="M0.717899 0.469211C0.787567 0.399366 0.870331 0.343952 0.961448 0.306142C1.05257 0.268332 1.15025 0.248871 1.2489 0.248871C1.34755 0.248871 1.44523 0.268332 1.53635 0.306142C1.62747 0.343952 1.71023 0.399366 1.7799 0.469211L5.7489 4.43971L9.7179 0.469211C9.78763 0.399479 9.87041 0.344165 9.96152 0.306426C10.0526 0.268687 10.1503 0.249264 10.2489 0.249264C10.3475 0.249264 10.4452 0.268687 10.5363 0.306426C10.6274 0.344165 10.7102 0.399479 10.7799 0.469211C10.8496 0.538943 10.9049 0.621727 10.9427 0.712836C10.9804 0.803945 10.9998 0.901595 10.9998 1.00021C10.9998 1.09883 10.9804 1.19648 10.9427 1.28759C10.9049 1.3787 10.8496 1.46148 10.7799 1.53121L6.8094 5.50021L10.7799 9.46921C10.8496 9.53894 10.9049 9.62173 10.9427 9.71284C10.9804 9.80394 10.9998 9.9016 10.9998 10.0002C10.9998 10.0988 10.9804 10.1965 10.9427 10.2876C10.9049 10.3787 10.8496 10.4615 10.7799 10.5312C10.7102 10.6009 10.6274 10.6563 10.5363 10.694C10.4452 10.7317 10.3475 10.7512 10.2489 10.7512C10.1503 10.7512 10.0526 10.7317 9.96152 10.694C9.87041 10.6563 9.78763 10.6009 9.7179 10.5312L5.7489 6.56071L1.7799 10.5312C1.71017 10.6009 1.62738 10.6563 1.53627 10.694C1.44517 10.7317 1.34751 10.7512 1.2489 10.7512C1.15028 10.7512 1.05263 10.7317 0.961524 10.694C0.870414 10.6563 0.787631 10.6009 0.717899 10.5312C0.648167 10.4615 0.592852 10.3787 0.555114 10.2876C0.517375 10.1965 0.497951 10.0988 0.497951 10.0002C0.497951 9.9016 0.517375 9.80394 0.555114 9.71284C0.592852 9.62173 0.648167 9.53894 0.717899 9.46921L4.6884 5.50021L0.717899 1.53121C0.648054 1.46154 0.592639 1.37878 0.55483 1.28766C0.51702 1.19654 0.497559 1.09886 0.497559 1.00021C0.497559 0.90156 0.51702 0.803878 0.55483 0.712761C0.592639 0.621643 0.648054 0.53888 0.717899 0.469211Z" fill="#6C6D6F"/>
</svg>
